<svg viewBox="0 0 100 100" xmlns="http://www.w3.org/2000/svg">
  <!-- DNA helix -->
  <path d="M30 10 C60 10, 40 30, 70 30 C40 30, 60 50, 30 50 C60 50, 40 70, 70 70 C40 70, 60 90, 30 90" 
        fill="none" stroke="#4A90E2" stroke-width="2"/>
  <path d="M70 10 C40 10, 60 30, 30 30 C60 30, 40 50, 70 50 C40 50, 60 70, 30 70 C60 70, 40 90, 70 90" 
        fill="none" stroke="#2C3E50" stroke-width="2"/>
  <!-- Connection points -->
  <circle cx="30" cy="30" r="3" fill="#FF4757"/>
  <circle cx="70" cy="50" r="3" fill="#FF4757"/>
  <circle cx="30" cy="70" r="3" fill="#FF4757"/>
</svg>
